<svg height="680" viewBox="0 0 740 680" width="740" xmlns="http://www.w3.org/2000/svg"><g fill="none" fill-rule="evenodd"><g transform="translate(505 85)"><circle cx="53" cy="53" fill="#f2f2f2" r="53"/><g fill="#000" fill-opacity=".1"><circle cx="53" cy="11" r="3"/><circle cx="11" cy="53" r="3"/><circle cx="95" cy="53" r="3"/><circle cx="53" cy="95" r="3"/></g><path d="m53 17 2 35h-4z" fill="#afb9c5"/><path d="m62.2132034 50.2132034 2 24h-4z" fill="#afb9c5" transform="matrix(-.70710678 .70710678 -.70710678 -.70710678 150.195958 62.213203)"/><circle cx="53" cy="53" fill="#c5cfd6" r="4"/></g><g opacity=".345889" transform="translate(29 244)"><path d="m.20634055 172.384858c6.894784-77.0487019 376.82929845-225.7608129 445.50635145-152.7818056 68.677053 72.9790074 2.652585 209.9415136-141.269152 245.0141256-143.921736 35.072612-311.13198344-15.183619-304.23719945-92.23232z" fill="#f2f2f2" transform="matrix(-1 0 0 1 473 0)"/><path d="m244.144372 222.447681c6.176057-65.455887 337.547826-191.7926429 399.06584-129.794121 61.518013 61.998522 45.946604 192.405229-82.97243 222.200785s-322.269467-26.950778-316.09341-92.406664z" fill="#dde3e9"/></g><g transform="translate(25 152.673469)"><ellipse cx="49.5" cy="34.5" fill="#f2f2f2" rx="42.5" ry="22.5"/><path d="m99 50c0-27.6142375-22.1619049-50-49.5-50s-49.5 22.3857625-49.5 50" fill="#dde3e9"/></g><path d="m72 0h5v160h-5z" fill="#dde3e9"/><g opacity=".7"><g transform="translate(115 113)"><ellipse cx="37" cy="27.842105" fill="#f2f2f2" rx="31.767677" ry="18.157895"/><path d="m74 40.3508772c0-22.2851741-16.5654643-40.3508772-37-40.3508772s-37 18.0657031-37 40.3508772" fill="#dde3e9"/></g><path d="m150 0h5v136h-5z" fill="#dde3e9"/></g><g transform="translate(524 198)"><path d="m60 36.23565 18.567634-18.5799616c3.1235498-3.1248387 8.1888696-3.1258834 11.3137082-.0023335.000778.0007777.0015558.0015555.0023335.0023335l49.4323663 49.4574281c2.999154 3.0003921 4.683958 7.0690545 4.683958 11.3113748v327.5755087" stroke="#cbcbcb" stroke-width="8"/><rect fill="#afb9c5" height="7" rx="3" width="59" x="114" y="405"/><g transform="matrix(.70710678 .70710678 -.70710678 .70710678 48.790368 1)"><path d="m33.0303119 1.38390164c18.2253968 0 33 14.77460326 33 32.99999996v28h-65.99999998v-28c0-18.2253967 14.77460328-32.99999996 32.99999998-32.99999996z" fill="#c5cfd6"/><ellipse cx="33.208929" cy="61.4454" fill="#f2f2f2" rx="33" ry="6.5"/></g></g><g transform="translate(16 371)"><g transform="translate(22)"><path d="m25.2579539 1.17309307c2.8645767-.34997163 5.9219502-.22643308 8.5859227.90427304 5.664665 2.40464223 7.2748551 9.09677749 7.197175 14.53615209-.0837451 5.8545229-1.3270006 12.249142 3.1240646 16.9662727 2.046066 2.1686644 4.5912132 3.8283243 6.600313 6.0368094 2.1467559 2.360064 3.8312001 5.0604465 5.0784051 7.9602286 2.2900164 5.3263502 3.4139964 11.5900686 1.3199017 17.1774449-1.8438136 4.9193569-6.4826425 9.3594981-5.4803041 14.953283 1.0455271 5.8353596 6.9287781 10.2965409 10.6070121 14.6429677 4.1627216 4.9187937 7.9954578 11.2054625 8.6250899 17.6559445.6037543 6.181855-2.0871265 12.433912-6.2167649 17.106889-8.251028 9.33738-20.6536029 13.914873-33.159205 13.886511-5.3095381-.0123-11.3210133-.252101-15.9030017-3.105355-1.4161299-.88192-2.1632294-1.871354-3.0050789-3.246808-.7548085-1.233383-1.7519047-2.035646-2.90602345-2.908387-2.53559511-1.916925-4.36674458-4.500475-5.53533818-7.39249-4.53790156-11.232806-.91095502-25.129164 5.44108003-35.1039835 1.5051519-2.3632386 2.7374435-4.6373826 2.0062346-7.4542239-.7630386-2.940441-2.63842191-5.5925587-4.29717719-8.1201177-1.63911384-2.4980164-3.51038057-4.8810902-4.79150165-7.5819937-1.34176467-2.8293888-1.71959485-5.7922345-1.48252006-8.888765.44556581-5.8166305 2.95649491-11.1842647 6.51142403-15.86212 3.42405457-4.505798 7.44446617-8.8171488 7.45347467-14.7211016.0098926-6.2573857-4.1734047-11.8237163-2.3912583-18.1855445.7379253-2.63431767 2.2200764-5.33714353 4.608672-6.91645607 2.2907079-1.51467687 5.3153037-2.0102858 8.009404-2.33942996z" fill="#dde3e9"/><path d="m23.3861597 11.1764309c.0537181-.8403906 1.0505893-1.34442575 1.835348-1.1251298 1.0329587.2887961 1.013093 1.2539705.9858216 2.1138653-.0835989 2.643112.298967 5.2117853.9343266 7.7763535 1.3205265 5.3320227 3.761037 10.2446055 5.6945336 15.3664359 1.9318114 5.1175428 2.8386444 10.401251 1.7053628 15.8163418-1.0683465 5.1056756-2.7467515 10.079018-3.840101 15.1911381-.9636989 4.5056772-1.9891207 9.2571667-.5215305 13.7513706 1.4121827 4.3259981 4.5343242 7.8490503 6.7825368 11.7584874 4.6540596 8.0927838 6.7188094 17.0707603 6.9949789 26.3098903.1279868 4.290297.0127315 8.620045-.9825683 12.827892-.5728614 2.42289-1.3426906 5.697318-3.4189445 7.370087-.9574138.771402-2.5948955 1.038141-3.4007041-.104217-.756537-1.071442-.0928483-2.730141.1473261-3.87213 1.0401297-4.943484 1.2493803-9.995529 1.0003583-15.01512-.241013-4.862133-.8154751-9.716147-2.3457223-14.359686-1.4202747-4.309272-3.5779347-8.1798351-6.1173704-11.9495318-2.5876671-3.8415844-5.2777743-7.6913651-6.3469892-12.243247-1.0863537-4.6230969-.2038003-9.3272464.9762947-13.862052 1.2479792-4.7965451 2.8826368-9.4554916 4.5725813-14.1220769 1.6469089-4.5472394 2.2306574-8.8497366 1.3214947-13.608951-1.7960073-9.4026215-6.6033906-18.2280347-5.9770331-28.0197204z" fill="#c5cfd6"/></g><g transform="translate(32 11)"><path d="m90.8923323 1.58227349c3.5448492 1.07633135 7.0655507 2.81294539 9.5924807 5.53600617 5.373095 5.79067834 3.724482 14.54262954.758325 20.93496534-3.1927023 6.8801458-8.0308709 13.7958202-5.3035035 21.6899662 1.2535615 3.6291285 3.3615366 6.9159283 4.5506925 10.5729192 1.270494 3.907864 1.818863 7.9776925 1.748998 12.0558747-.129341 7.4903988-2.121785 15.4827556-7.5312272 21.0011379-4.7627972 4.8585671-12.5505779 7.696372-14.3315947 14.833167-1.8580478 7.444955 2.6844182 15.781464 4.7012706 22.835162 2.2825773 7.982635 3.4551075 17.411289.7841255 25.367346-2.5593481 7.62491-9.0200864 13.6189-16.3337047 16.996954-14.6130302 6.750261-31.5795224 5.711626-46.2323763-.82761-6.2210661-2.776687-13.1451877-6.187585-17.01128924-11.945571-1.19483242-1.779684-1.54812959-3.338473-1.80852388-5.40307-.23339738-1.851298-.97884769-3.318788-1.87121795-4.951313-1.96079123-3.586078-2.74298365-7.594058-2.58502088-11.622158.61471955-15.644928 12.21385755-30.192307 24.93648085-38.6843179 3.0145134-2.011814 5.6618965-4.0602105 6.2931351-7.7718719.6592355-3.8743922-.1385969-7.9864724-.7481829-11.8385514-.6021635-3.8069233-1.5373739-7.5986835-1.6124087-11.4593106-.0782513-4.0441252 1.0446382-7.7446197 2.9594116-11.2833261 3.5970541-6.647106 9.3792546-11.688769 16.0213738-15.3715694 6.3976733-3.5474046 13.3920375-6.5546128 16.523208-13.5320953 3.3190186-7.3950017 1.3545711-16.1541347 6.807474-22.75068663 2.2579139-2.73152777 5.4249424-5.15691217 9.0612953-5.78204756 3.4873762-.59961893 7.2968904.38772345 10.630779 1.40000028z" fill="#dde3e9"/><path d="m83.6512541 13.8108813c.5029473-.9670651 1.9325737-1.0414713 2.735348-.3704579 1.0565975.8834069.5278816 2.0159883.0456437 3.0200123-1.482019 3.0862498-2.3799621 6.3286777-2.9801613 9.6987407-1.2484152 7.0064967-.9675517 14.1032949-1.3891326 21.1821504-.4213057 7.0728947-2.1281526 13.8053465-6.2893318 19.6241016-3.9232012 5.486369-8.4904427 10.4962745-12.4462553 15.9771706-3.4866012 4.8306787-7.1741137 9.9201061-7.8117786 16.0115088-.6143596 5.8631662 1.1912739 11.6716972 1.772655 17.4797452 1.203632 12.023092-1.0840368 23.737325-5.5998804 34.823377-2.0972835 5.147803-4.4996537 10.214835-7.867225 14.67625-1.9387817 2.569018-4.5538522 6.04322-7.8577065 6.935946-1.5235154.411713-3.5779352-.130658-3.9218914-1.905828-.3234835-1.665363 1.3212771-3.281794 2.2002042-4.508295 3.8052631-5.309085 6.6958281-11.18222 9.0335343-17.257117 2.2646065-5.884232 4.1350554-11.933619 4.7776658-18.23471.5961375-5.8476.100281-11.562152-.8948154-17.357353-1.0138445-5.905613-2.1431804-11.874625-1.0094843-17.8255316 1.1509526-6.0442247 4.6466148-11.1524721 8.401505-15.904226 3.9713477-5.0261349 8.3227777-9.6866511 12.7428559-14.3272359 4.3072518-4.5218074 7.2431631-9.3110165 8.6725949-15.4235654 2.8243093-12.0762571 1.8250914-25.0473156 7.6856558-36.3146828z" fill="#c5cfd6"/></g><g transform="translate(0 57)"><path d="m13.3059765 0c5.8942895 0 11.0763554 3.12436119 14.6471129 7.55793367 4.1799106 5.19012633 5.0241236 11.52830253 6.7214476 17.71400893.8445837 3.0783667 2.2972083 6.1342795 4.8428236 8.2257581 2.3153754 1.9020685 5.2547342 2.2826995 8.0261403 3.2120041 5.5387338 1.8571606 10.0111715 6.3309329 11.7774563 11.7897826 2.1548377 6.6586884-.1275403 13.3738739.2654617 20.1220161.3607463 6.1972955 6.4711869 10.0637242 11.3874203 13.0345292 4.8476434 2.9295187 9.2147862 5.6718002 10.6748259 11.3787301 1.5482799 6.0527934 2.06771 12.8089032-.0767466 18.7881782-3.5703867 9.9558-14.0194218 14.339756-24.1158674 15.019532-9.1628802.61676-20.6841436-.351658-27.5653874-7.002741-4.1176235-3.980147-5.6088068-9.546559-5.4237993-15.084722.1149346-3.443787.7971269-6.8557034 1.679157-10.183599.6250957-2.3587532 1.4696794-4.707366 1.7103005-7.1447082.6395552-6.484489-5.3537263-7.72996-10.455338-9.5103425-6.4826803-2.2627807-11.02111268-6.5366402-14.17699342-12.4909259-2.9389881-5.5439575-4.17212477-11.7673286-2.41028909-17.8711867.89982643-3.1167558 2.53189727-5.9445073 4.74531457-8.3496171.97434852-1.058596 2.34763122-1.9415441 3.22706603-3.0537399.82085526-1.0386771.64215055-2.3844667.35926321-3.6009648-1.30802952-5.6192869-5.3833868-10.2723288-6.84083126-15.8814752-1.3158154-5.063008-.53796792-11.36424367 4.09092906-14.6305719 1.99986146-1.41134062 4.4661348-2.02230589 6.9105335-2.0378788z" fill="#c5cfd6"/><path d="m21.3376913 14.6413767c6.2473156 6.6546462 7.9454114 15.6835978 8.4437696 24.4347744.2791542 4.9072357-.0114015 10.0831923 1.4303433 14.8430299 1.2335745 4.073911 4.1255233 7.1881044 7.1064777 10.1313593 6.0005272 5.9248986 12.6925033 11.9483041 14.4476069 20.52311 1.0298177 5.03218.3346908 10.2298661 1.7576782 15.2066361 1.2938924 4.5237106 3.5719963 8.9681086 6.3429415 12.7881476 2.2310265 3.076167 5.137687 5.431278 7.576516 8.298842.7440433.875335 1.8099046 2.163892 1.5027983 3.399573-.3593329 1.447182-2.2027066 1.905312-3.5105751 1.677877-3.0493637-.529837-5.6161844-3.441584-7.609985-5.558396-2.9154875-3.095361-5.3929347-6.424676-7.4065961-10.159245-2.23544-4.147429-4.0354143-8.548368-4.8044674-13.2013694-.7981088-4.8271989-.4008934-9.8579303-2.2233029-14.4906506-3.06665-7.7950805-10.5048762-12.3952065-15.8827314-18.4707627-6.7004354-7.5705428-5.7011444-16.9927975-5.0148445-26.3053185.3769869-5.1176492.7517669-10.8969605-1.8341789-15.569518-.9871538-1.7836263-3.1880214-3.4466541-3.6124534-5.4740124-.3887562-1.8575064 1.7330361-3.7345693 3.2910032-2.0740767z" fill="#afb9c5"/></g><path d="m28 181c.0003799 38.05849 6.211229 58 39.0000931 58 32.788864 0 38.9997129-19.94151 38.9999069-58z" fill="#89c5cc"/></g><g transform="translate(135 353)"><g transform="translate(23)"><rect fill="#afb9c5" height="9" rx="2" width="38" x="21" y="144"/><path d="m31 115c4.2931455-13.91453 6.6987626-28.5811966 7.2168511-44h2.7831489 1.7831489c.5180885 15.4188034 2.9237056 30.08547 7.2168511 44h6.5c8.5604136 0 15.5 6.939586 15.5 15.5s-6.9395864 15.5-15.5 15.5h-33c-8.5604136 0-15.5-6.939586-15.5-15.5s6.9395864-15.5 15.5-15.5z" fill="#dde3e9"/><path d="m4.62222222 1.67861504c11.45925928-1.11907669 22.91851848-1.67861504 34.37777778-1.67861504s22.9185185.55953835 34.3777778 1.67861504l4.6222222 79.45444536c-13 1.2446264-26 1.8669396-39 1.8669396s-26-.6223132-39-1.8669396z" fill="#c5cfd6"/></g><path d="m21 153h83 21v104h-21v-82h-83v82h-21v-104z" fill="#f2f2f2"/></g><g transform="translate(550 328)"><path d="m3.38092413.20818701c8.83300087 20.98903799 23.84827647 35.57234689 31.80097097 57.39669629 4.7158716 12.9424803 6.6816569 27.0146232 6.8008893 41.4270648.0647777 7.8283069-.0714878 15.6616399-.108135 23.4899469-.0356148 7.634107-.2431101 15.219395-.8911457 22.804682-.6511325 7.625492-1.3802047 15.160166-1.7017708 22.832682-.2503363 5.978202-.3646651 12.931711-2.3910989 18.384748-1.6114433 4.336655-5.7071519 4.972023-6.7939212-.287531-.6039041-2.92377-.5277709-6.188197-.4611866-9.193092.085424-3.855283.3096944-7.704823.4240232-11.559388.4596382-15.467799-.1362655-30.938469.1752355-46.41237.3042747-15.118526 2.2476072-30.220539.0972956-45.2381955-1.7755813-12.4015201-6.2865385-23.0509325-11.4705649-33.2602538-4.9876286-9.8223572-10.41605548-19.4060027-13.78656302-30.5787859-.96779505-3.20878748-1.71596514-6.53387956-2.07495258-9.9842504.15691184-.07286987.28388655-.01364066.38092413.17804661z" fill="#c1dee2"/><path d="m.9735884 41.6169557c1.749076 1.2630362 2.72642344 3.1106216 3.90863793 4.9335943 1.47015608 2.2664096 3.19855742 4.3125365 4.6683376 6.580587 3.06473597 4.7284894 5.75732817 9.7474074 8.55103827 14.6674648 5.3039893 9.3388383 9.3310366 19.292171 11.3255772 30.096279 2.0674657 11.1966792 2.6249296 22.7535222 3.4921375 34.1171562.9198343 12.044173 1.846059 24.17613 1.9678515 36.266656.0545059 5.416822.3473342 11.167144-.3029777 16.545816-.4048474 3.348544-1.9159769 6.202374-5.3227845 6.1753-7.2365059-.057429-10.6339159-8.07252-12.0533251-14.646134-2.0892681-9.679312-2.5061444-19.960813-2.1753499-29.859588.3995848-11.935877 2.4711854-23.692492 3.3677137-35.582426.9495306-12.5868802.4131173-24.9514266-3.9142764-36.8028005-2.1862511-5.9890644-4.72359536-11.8345553-7.00194259-17.7838293-.97020527-2.5330461-1.76486392-5.1350074-3.07526128-7.4937142-1.45775129-2.6237025-3.26734765-5.0053811-4.40896463-7.831317.32440417.2059254.64918424.4114405.9735884.6169557z" fill="#89c5cc"/><path d="m84.3341427 16.5176702c.2218706-.1724332.4440144-.34483.6658573-.5176702-.6390603 2.6926575-1.7934411 4.8798938-2.6758463 7.3413066-.7931945 2.2128201-1.1952398 4.7169184-1.7294883 7.1356439-1.2545238 5.6808062-2.7042389 11.2335651-3.8891606 16.9627666-2.3456097 11.3370353-1.9019765 23.5504672-.3636205 36.1284353 1.4528664 11.8814737 3.7505937 23.7445606 4.8454609 35.6234566.9075749 9.851461 1.2976639 20.010132.4319476 29.409391-.5883082 6.383369-2.516738 14.004994-7.7711552 13.360759-2.4736759-.303256-3.7640704-3.28063-4.2839484-6.641554-.8350778-5.398561-1.0098887-11.074403-1.3353936-16.442512-.7264408-11.981785-.8711469-23.92672-1.0145794-35.785194-.1358022-11.188492-.5096977-22.598657.237901-33.5052291.7210694-10.5242152 2.9763713-20.0075306 6.200961-28.7575453 1.6983762-4.609904 3.3166132-9.3276741 5.2248382-13.7212842.9151179-2.1074468 2.0331169-3.9696895 2.9486186-6.0754721.7361626-1.6938021 1.321803-3.4318707 2.5076077-4.5152981z" fill="#c1dee2"/><path d="m3.20880772 76.3018223c.95691387-1.6064971 3.06325745 3.691587 3.38382499 4.3579528-.13558279-.3314667-.27170484-.6624579-.40903065-.9931611 1.89938561 3.1583127 3.63702278 6.4461154 4.71738084 10.0675379 1.0690674 3.5849609 1.9873181 7.2423857 2.9904271 10.8528271 1.8821795 6.77402 4.3102557 13.355777 6.0155526 20.190821 1.6616192 6.660424 2.0805833 13.208091 1.6783355 20.097398-.418059 7.160293-.6738245 14.430445-.18611 21.586877.2329279 3.417943 1.343535 6.601692 2.1047306 9.892238.7621229 3.293789 1.3623752 6.631496 2.2633595 9.884446.2068168-.423763.2331625.992946.2327163 1.100489-.0056545.81267-.1191304 1.494134-.3805923 2.264714-.671865 1.981576-1.9287822 3.665031-3.8414281 4.21159-3.456458.987567-6.6657298-2.15652-7.7803742-5.476544-1.5990249-4.763723-2.4801527-10.028055-3.2421976-15.034952-.698638-4.591279-.86396119-9.209964-.656401-13.864469.4088646-9.178936 2.0699626-18.237702 2.5193017-27.413843.4890491-9.990025-1.4902623-19.376467-3.14747897-29.1009176-.7982408-4.6856343-1.5610804-9.3270579-3.11451964-13.7911592-.62893499-1.8076763-1.44893674-3.4029513-2.30871021-5.0722363-.4892113-.9497226-1.47854289-2.6438158-.83878646-3.7596086z" fill="#c1dee2"/><path d="m31.2520927 60.6970481c-.3964548 11.4447712-1.0800711 22.8027264-2.6059042 34.1268981-1.5572523 11.5563358-3.3458615 23.0729948-4.8442346 34.6395438-1.458576 11.258962-2.9874096 22.704911-2.7835863 34.121006.1501119 8.408964-1.2442268 22.634201 8.0950019 26.784473 9.4587155 4.202911 11.4876511-13.745589 12.1087458-19.669891 1.1902214-11.366204.8048907-22.852223.2272614-34.280495-.5930113-11.729182-1.5829446-23.398653-2.8098301-35.085016-1.3627117-12.9807444-2.4319381-26.0200212-3.2900833-39.0376921-.4245733-6.4389114-.5291683-12.8672163-.4120244-19.307699.1107321-6.0775058-.1201781-12.2178648-2.2809448-17.9881759-.1132168.0821019-.2256812.1642038-.3389054.2459129" fill="#69a1ac"/><path d="m80.0827466 96.9552251c-1.7010622 2.4780702-3.4158028 4.9320279-5.0222365 7.5569629-2.8743708 4.696387-5.4735894 9.919405-6.2555257 16.634636-1.6363489 14.053541-.3235613 29.232132-.0067109 43.715855.0648085 2.959765-.3095217 5.830205.8570468 8.646942 1.0576987 2.554242 3.0352051 4.500749 4.9201861 4.490337 4.0352972-.023016 3.4196224-9.904608 3.4262723-14.254109.0121684-7.623272-.8426555-15.323812-.7690817-22.93996.0734601-7.545455.5323233-15.111735 1.6263024-22.277972 1.1075706-7.25337 2.729563-14.21849 4.8701353-20.718355.2970496-.9020132 2.4288069-7.8720652.4147622-6.6708423" fill="#89c5cc"/><path d="m62.262195 22c-2.6530437 0-2.636779 13.2259973-2.7165897 14.9248132-.2882263 6.1305808-.2205196 12.2628019-.402836 18.3946129-.3990534 13.3814043-.8892651 26.8800814-2.8992843 40.1068988-1.0821725 7.1204291-2.3368269 14.2092851-3.686422 21.2755881-1.3533776 7.086805-3.1701112 14.165-4.0605111 21.341605-.8548444 6.899005-.3718195 13.933735-.2545621 20.866774.1172574 6.974863.3279426 13.963668 1.2417939 20.877434.2254369 1.706607.4898335 3.407063.7727643 5.103419.2356496 1.413424.0983449 3.166366.4970202 4.509673.639242 2.151506 3.3792832 2.855553 5.2243855 2.519316 4.9925184-.91153 8.1815421-7.180296 9.8870702-11.760497 2.177962-5.84847 3.333515-12.192274 4.473938-18.355659 1.2921012-6.982654 2.0493572-14.071919 2.4045337-21.180867.7220787-14.447931-.2046331-28.911444-1.2395245-43.31304-.5756961-8.0094065-1.2406591-15.9835491-2.258151-23.9433401-1.013331-7.9257573-2.3133754-15.8162507-3.1598984-23.7653806-.6150341-5.7767121-1.2209902-11.5612151-1.6192871-17.3600696-.095319-1.3826713-.1755079-10.2412807-2.2044396-10.2412807" fill="#69a1ac"/><path d="m58.9407927 118.138703c-.4324378-13.886008-6.0142639-74.8797952-7.2842121-91.6715707-.3175715-4.2029627-3.3750419-21.70249322-3.7716684-26.4671323-1.0753512 1.346742-.9834582 22.3094454-.9716337 27.1261944.0125001 4.7646391-.5783856 9.4502591-.8824434 14.1892703-.3098012 4.8355427-7.4585386 67.2854173-8.3862528 71.9317413-1.8456311 9.243528-3.0807816 18.729239-4.0334961 28.180352-.9280521 9.21192-2.3709754 18.930417-1.1290681 28.190603.2854765 2.131808.7371713 4.229445 1.4726534 6.187838.7946045 2.116004 1.3392059 4.072688 1.9770516 6.286931 1.0263641 3.566539 2.883144 6.69655 5.7362199 8.168868 5.849397 3.018958 8.9903144-3.815128 10.5825639-9.765054 2.542937-9.501942 4.1750519-19.158932 4.9402641-29.137978.8466321-11.040465 2.0963098-22.103569 1.7500217-33.220063" fill="#89c5cc"/></g><rect fill="#fff" height="91" rx="2" width="91" x="547" y="487"/><g fill="#c5cfd6"><rect height="113" rx="2" width="10" x="537" y="497"/><rect height="113" rx="2" width="10" x="587" y="497"/><rect height="113" rx="2" width="10" x="638" y="497"/></g></g></svg>